<?xml version="1.0" encoding="utf-8"?>
<!-- Generator: Adobe Illustrator 28.0.0, SVG Export Plug-In . SVG Version: 6.00 Build 0)  -->
<svg version="1.1" id="Layer_1" xmlns="http://www.w3.org/2000/svg" xmlns:xlink="http://www.w3.org/1999/xlink" x="0px" y="0px"
	 viewBox="0 0 3000 3000" style="enable-background:new 0 0 3000 3000;" xml:space="preserve">
<style type="text/css">
	.st0{fill-rule:evenodd;clip-rule:evenodd;fill:#FFFFFF;}
</style>
<g>
	<path class="st0" d="M2000,1842.2c-34.5,0-62.5,28-62.5,62.5v500c0,34.5-28,62.5-62.5,62.5h-375V614.4
		c0-76.7-46.7-145.6-117.9-174.1l-557.6-223H1875c34.5,0,62.5,28,62.5,62.5v500c0,34.5,28,62.5,62.5,62.5s62.5-28,62.5-62.5v-500
		c0-103.6-83.9-187.5-187.5-187.5H625c-103.6,0-187.5,83.9-187.5,187.5v59.6v1940.4v165.4c0,76.7,46.7,145.6,117.9,174.1l687.5,275
		c123.2,49.3,257.1-41.4,257.1-174.1v-127.9h375c103.6,0,187.5-83.9,187.5-187.5v-500C2062.5,1870.2,2034.5,1842.2,2000,1842.2z
		 M1375,2720.1c0,44.2-44.7,74.5-85.7,58l-687.5-275c-23.7-9.5-39.3-32.5-39.3-58v-165.4V339.4c0-44.2,44.7-74.5,85.7-58l687.5,275
		c23.7,9.5,39.3,32.5,39.3,58V2720.1z"/>
	<path class="st0" d="M2547.4,1301.6l-214.3-250c-22.5-26.2-61.9-29.2-88.1-6.8c-26.2,22.5-29.2,61.9-6.8,88.1l125.9,146.8H1750
		c-34.5,0-62.5,28-62.5,62.5s28,62.5,62.5,62.5h614.1l-125.9,146.8c-22.5,26.2-19.4,65.7,6.8,88.1c26.2,22.5,65.7,19.4,88.1-6.8
		l214.3-250C2567.5,1359.5,2567.5,1325,2547.4,1301.6z"/>
</g>
</svg>
